# xmcd CD database file
#
# Track frame offsets:
#	150
#	3282
#	20572
#	40867
#	56002
#	78300
#	91705
#	108137
#	125427
#	140132
#	161517
#	182112
#	199830
#
# Disc length: 2800 seconds
#
# Revision: 1
# Processed by: cddbd v1.5.1PL2 Copyright (c) Steve Scherf et al.
# Submitted via: CDex 1.51
#
DISCID=a20aee0d
DTITLE=이상기억 - 장세용
DYEAR=2005
DGENRE=New Age
TTITLE0=Intro
TTITLE1=Shining The Morning
TTITLE2=I Wish
TTITLE3=異常記憶 (이상기억)
TTITLE4=안녕…
TTITLE5=Sweet Love
TTITLE6=달에서의 하루
TTITLE7=Loving You
TTITLE8=그대가 그리울 때
TTITLE9=고백
TTITLE10=Remembrance
TTITLE11=사랑이란…..기억
TTITLE12=Amazing Grace
EXTD=YEAR: 2005
EXTT0=
EXTT1=
EXTT2=
EXTT3=
EXTT4=
EXTT5=
EXTT6=
EXTT7=
EXTT8=
EXTT9=
EXTT10=
EXTT11=
EXTT12=
PLAYORDER=
